<svg width="42" height="42" viewBox="0 0 42 42" fill="none" xmlns="http://www.w3.org/2000/svg">
<path d="M42 21C42 32.598 32.598 42 21 42C9.40202 42 0 32.598 0 21C0 9.40202 9.40202 0 21 0C32.598 0 42 9.40202 42 21ZM21 9.1875C21 8.46263 20.4124 7.875 19.6875 7.875C18.9626 7.875 18.375 8.46263 18.375 9.1875V23.625C18.375 24.096 18.6274 24.5309 19.0363 24.7646L28.2238 30.0146C28.8532 30.3742 29.6549 30.1556 30.0146 29.5262C30.3742 28.8968 30.1556 28.0951 29.5262 27.7354L21 22.8633V9.1875Z" fill="#E0C3A1"/>
</svg>
