<svg width="37" height="41" viewBox="0 0 37 41" fill="none" xmlns="http://www.w3.org/2000/svg">
<path fill-rule="evenodd" clip-rule="evenodd" d="M4.35854 1.28615C6.07468 -0.581419 8.90658 -0.389554 10.3966 1.69523L14.5446 7.49887C15.3057 8.5639 15.5747 9.95063 15.274 11.2596L14.0085 16.7685C13.8749 17.3501 14.0315 17.9653 14.421 18.3892L20.1018 24.5713C20.4914 24.9952 21.0567 25.1656 21.5911 25.0202L26.6534 23.643C27.8562 23.3157 29.1305 23.6085 30.1092 24.4368L35.4422 28.9508C37.358 30.5723 37.5343 33.654 35.8181 35.5216L33.4272 38.1235C31.7166 39.9851 29.158 40.8025 26.7736 39.8902C20.8531 37.625 15.2958 33.9165 10.5646 28.7679C5.8335 23.6193 2.42569 17.5717 0.344188 11.1288C-0.49414 8.53391 0.256988 5.7496 1.96759 3.88806L4.35854 1.28615Z" fill="#E2C4A2"/>
</svg>
