<svg width="23" height="22" viewBox="0 0 23 22" fill="none" xmlns="http://www.w3.org/2000/svg">
<path fill-rule="evenodd" clip-rule="evenodd" d="M2.68109 0.699044C3.73675 -0.316012 5.47875 -0.21173 6.39532 0.921389L8.94686 4.07577C9.4151 4.65464 9.58056 5.40835 9.39559 6.1198L8.6171 9.11397C8.53491 9.43008 8.63124 9.76447 8.87085 9.99487L12.3653 13.355C12.605 13.5854 12.9527 13.678 13.2815 13.5989L16.3954 12.8504C17.1353 12.6725 17.9192 12.8316 18.5212 13.2819L21.8018 15.7353C22.9802 16.6166 23.0887 18.2916 22.033 19.3066L20.5622 20.7208C19.51 21.7326 17.9361 22.1769 16.4694 21.681C12.8275 20.4499 9.40896 18.4342 6.49868 15.6359C3.58839 12.8375 1.49213 9.55052 0.211722 6.0487C-0.303963 4.63834 0.158083 3.12501 1.21033 2.11323L2.68109 0.699044Z" fill="#E0C3A1"/>
</svg>
